PathFileType	4	(X/Y/Z)	..\data\2014029\dynamic\2014029_C4_05.trc
DataRate	CameraRate	NumFrames	NumMarkers	Units	OrigDataRate	OrigDataStartFrame	OrigNumFrames
100.000000	100.000000	4	52	mm	100.000000	24	194
Frame#	Time	L_IAS			L_IPS			R_IPS			R_IAS			L_FTC			L_FLE			L_FME			L_FAX			L_TTC			L_FAL			L_TAM			L_FCC			L_FM1			L_FM2			L_FM5			R_FTC			R_FLE			R_FME			R_FAX			R_TTC			R_FAL			R_TAM			R_FCC			R_FM1			R_FM2			R_FM5			CV7			TV10			SXS			SJN			L_SIA			L_SRS			L_SAA			L_SAE			L_HLE			L_HME			L_UOA			L_RSP			L_UHE			L_HM2			L_HM5			R_SIA			R_SRS			R_SAA			R_SAE			R_HLE			R_HME			R_UOA			R_RSP			R_UHE			R_HM2			R_HM5			
		X1	Y1	Z1	X2	Y2	Z2	X3	Y3	Z3	X4	Y4	Z4	X5	Y5	Z5	X6	Y6	Z6	X7	Y7	Z7	X8	Y8	Z8	X9	Y9	Z9	X10	Y10	Z10	X11	Y11	Z11	X12	Y12	Z12	X13	Y13	Z13	X14	Y14	Z14	X15	Y15	Z15	X16	Y16	Z16	X17	Y17	Z17	X18	Y18	Z18	X19	Y19	Z19	X20	Y20	Z20	X21	Y21	Z21	X22	Y22	Z22	X23	Y23	Z23	X24	Y24	Z24	X25	Y25	Z25	X26	Y26	Z26	X27	Y27	Z27	X28	Y28	Z28	X29	Y29	Z29	X30	Y30	Z30	X31	Y31	Z31	X32	Y32	Z32	X33	Y33	Z33	X34	Y34	Z34	X35	Y35	Z35	X36	Y36	Z36	X37	Y37	Z37	X38	Y38	Z38	X39	Y39	Z39	X40	Y40	Z40	X41	Y41	Z41	X42	Y42	Z42	X43	Y43	Z43	X44	Y44	Z44	X45	Y45	Z45	X46	Y46	Z46	X47	Y47	Z47	X48	Y48	Z48	X49	Y49	Z49	X50	Y50	Z50	X51	Y51	Z51	X52	Y52	Z52	

25	0.24	110.76416015625	1061.388671875	-361.1733093261719	-97.34925842285159	1050.962646484375	-298.3316040039063	-102.0823440551758	1048.519165039063	-197.3166961669922	96.01371765136722	1058.306518554688	-112.6568450927735	41.28489685058594	968.5518188476565	-436.3287658691407	112.1302261352539	520.0740966796876	-400.294891357422	113.2794723510742	497.9005126953126	-275.2593383789063	105.2605895996094	451.851043701172	-408.470428466797	166.8894805908203	454.3471679687501	-340.6389770507813	117.9730987548828	78.09785461425783	-375.6312255859376	146.8834075927735	92.41078186035158	-277.2050781250001	72.19691467285158	16.70352554321289	-332.0110778808594	293.8380126953126	25.04026603698731	-293.2285766601563	285.7735290527344	39.61032867431641	-345.9571838378907	233.8636322021485	14.61683368682862	-403.8155822753907	-18.78078079223633	944.6724243164065	-56.46814346313478	14.01415920257569	505.4256286621095	-67.57643127441408	24.97716903686524	476.8206176757814	-194.6645660400391	-40.39522171020509	466.8690185546876	-65.40966033935548	24.7001132965088	415.720184326172	-118.4876861572266	-319.1734008789063	231.4596405029297	-121.0570068359375	-283.1068725585938	205.4841461181641	-213.3874816894532	-384.408172607422	238.2239990234376	-180.6996765136719	-298.7031860351563	48.72076416015626	-188.938705444336	-289.5589294433594	68.44790649414064	-136.2664337158203	-320.9249267578126	85.3296585083008	-88.53893280029298	-13.8420696258545	1589.1962890625	-283.8147888183594	-107.1211929321289	1327.508056640625	-254.2901763916016	148.2464141845703	1294.289672851563	-262.7388000488282	114.2341690063477	1487.733276367188	-277.9836425781251	-134.2190551757813	1357.923828125	-352.4026794433594	-84.30639648437501	1508.8154296875	-374.1484680175782	-43.06250762939454	1495.068969726563	-486.7143859863282	12.4507122039795	1494.482299804688	-500.4485778808595	-56.17787170410158	1141.34326171875	-553.5054321289064	-66.76802062988283	1138.946533203125	-456.3397521972657	-87.57729339599611	1132.163696289063	-500.1795654296876	20.27362060546875	860.1893310546877	-541.6550292968751	-58.29087448120119	879.5808105468752	-580.2595214843751	32.85162353515626	774.5435180664065	-535.9597778320314	-65.4357376098633	790.705993652344	-589.3130493164064	-124.8714752197266	1377.698120117188	-159.1881866455078	-76.73931884765626	1523.215698242188	-171.66845703125	-21.26507949829102	1531.603637695313	-65.73911285400392	31.06451606750489	1535.411987304688	-56.59594345092775	-26.19240951538087	1189.137939453125	34.49870300292969	-45.31137466430665	1170.1630859375	-55.47844314575197	-56.73780822753908	1166.554321289063	4.378896236419679	116.8763275146485	934.1111450195315	13.47018241882325	40.07995223999024	932.1308593750002	62.85127258300783	151.8375091552735	846.8992309570315	14.00448608398438	49.35115432739259	843.0424804687502	70.41201019287111	
26	0.25	121.1315078735352	1062.08447265625	-362.6311340332032	-87.24634552001955	1052.019897460938	-300.1127319335938	-92.24726867675783	1049.276977539063	-199.2039184570313	105.7644958496094	1059.448852539063	-114.0894241333008	51.06198883056642	969.1741943359377	-437.7012634277345	115.5962066650391	519.9481811523439	-401.1889953613282	116.4347610473633	497.9331054687501	-276.1565856933594	107.8961791992188	451.7616271972657	-409.2842712402345	169.6730499267578	453.8189392089845	-341.5009460449219	117.9840240478516	78.05344390869142	-375.4820556640626	146.8694458007813	92.2400588989258	-277.0511474609376	72.11447143554689	16.65779113769532	-331.9569702148438	293.9155578613282	24.54066276550294	-293.1028137207032	285.9765014648438	39.23829650878907	-346.1793518066407	233.7367858886719	14.34906196594239	-403.9777832031251	-7.897674560546877	945.1809692382815	-59.15359497070314	37.63497924804688	506.0355529785157	-68.21459960937501	49.24156951904298	477.9729003906251	-195.332992553711	-16.3250732421875	468.2350463867189	-65.93901824951173	48.23576736450197	416.5674438476564	-119.4897079467774	-298.6846923828126	237.6646728515626	-121.7800598144532	-263.1116333007813	211.407943725586	-214.3029174804688	-364.2704162597657	245.0269012451172	-181.2162017822266	-279.9441223144532	55.03703689575197	-189.8778228759766	-270.4310302734376	74.55368041992189	-137.3720703125	-301.4548645019532	91.95722961425783	-89.6749725341797	-3.360200881958009	1590.22265625	-285.3583679199219	-96.8710861206055	1328.575561523438	-256.5561523437501	158.4830322265625	1295.28125	-263.5653381347657	124.6433410644532	1488.769165039063	-278.9017028808594	-123.2720184326172	1359.038818359375	-355.2212829589844	-73.31070709228517	1509.791625976563	-376.3218078613282	-31.04134559631348	1496.154296875	-488.7618103027345	24.61032867431641	1495.508666992188	-501.887420654297	-40.30585479736329	1141.708618164063	-556.4789428710939	-51.89158248901369	1138.998779296875	-459.4395141601564	-72.0828323364258	1131.868041992188	-503.5046386718751	41.57965469360352	862.0184326171877	-544.1837768554689	-37.10153579711915	879.791198730469	-583.3710937500001	55.99031829833986	776.8264770507815	-538.7697143554689	-42.33262252807618	790.7544555664065	-592.5798950195314	-115.0873947143555	1378.638916015625	-161.5391998291016	-66.8061981201172	1524.115478515625	-173.6070861816407	-11.97440338134766	1532.541015625	-67.37965393066408	40.32197952270509	1536.298217773438	-57.97006988525392	-17.36106872558594	1190.051391601563	32.72259140014649	-36.48485183715821	1171.237182617188	-57.21357345581056	-47.94338607788087	1167.679443359375	2.541933059692383	123.5099334716797	933.7760009765627	11.65910243988037	47.04118728637696	932.7903442382815	61.62218093872072	156.8771514892578	845.8369140625002	11.25116062164307	55.06908798217775	843.588317871094	69.00766754150392	
27	0.26	131.4006958007813	1062.68017578125	-364.1035156250001	-77.28240203857423	1052.985229492188	-301.8318176269532	-82.50365447998048	1049.98974609375	-201.0182037353516	115.437255859375	1060.596435546875	-115.4761734008789	60.74057006835939	969.6489868164065	-438.9930725097657	118.9001693725586	519.7897949218751	-402.0035095214845	119.2823638916016	497.8968505859376	-276.9631652832032	110.3999938964844	451.6570434570314	-410.0247192382814	172.2677459716797	453.2693786621095	-342.2359619140626	118.0516738891602	78.0307083129883	-375.3145446777344	146.871826171875	92.08094787597658	-276.8606262207032	72.04207611083986	16.65034675598145	-331.8926391601563	294.0007629394532	23.98941230773926	-292.9457702636719	286.1844177246094	38.84132766723634	-346.2989807128907	233.6349334716797	14.1041841506958	-404.0822143554689	2.888131141662598	945.7215576171877	-61.70472717285158	61.07247924804689	507.0905151367189	-68.97370910644533	73.02584838867189	479.7063903808595	-196.1702117919922	7.612606048583986	469.8684387207032	-66.5850067138672	71.63965606689455	417.8474121093751	-120.691650390625	-277.4079895019532	243.001693725586	-122.4139709472657	-242.4156494140626	216.8055267333985	-215.2243041992188	-343.5910339355469	250.3856964111329	-181.380111694336	-258.7494201660157	60.92050933837892	-190.9056091308594	-249.0035095214844	80.3241653442383	-138.4497680664063	-279.8293762207032	97.7861251831055	-90.72286224365236	7.068680763244631	1591.145141601563	-286.7805175781251	-86.72710418701173	1329.556640625	-258.7741699218751	168.6089782714844	1296.14208984375	-264.2916870117188	134.9738006591797	1489.67041015625	-279.6831970214844	-112.4369659423828	1360.097534179688	-357.9481201171876	-62.37571334838869	1510.699096679688	-378.4155578613282	-18.99554252624512	1497.107543945313	-490.7014465332032	36.81283950805665	1496.359741210938	-503.1422424316407	-24.36907386779786	1142.006591796875	-559.4235839843751	-37.06817245483399	1138.933837890625	-462.5447082519532	-56.56103897094728	1131.454467773438	-506.8466186523439	63.11611938476564	863.907653808594	-546.5797729492189	-15.62817478179932	880.0251464843752	-586.4126586914064	79.48286437988283	779.278015136719	-541.5363159179689	-18.85106849670411	790.869323730469	-595.7879028320314	-105.4430389404297	1379.38671875	-163.9389953613282	-56.99842834472658	1524.858032226563	-175.4941101074219	-2.906488418579102	1533.281127929688	-68.93435668945314	49.34259414672853	1536.990600585938	-59.21290969848634	-8.657746315002443	1190.7451171875	31.07138252258301	-27.72601127624512	1172.02197265625	-58.82694625854494	-39.23908996582032	1168.553466796875	0.8203267455101015	130.278305053711	933.3745117187502	10.02677631378174	54.13557052612306	933.3191528320315	60.54909515380861	162.177490234375	844.8508300781252	8.71365261077881	61.03008270263673	844.0215454101565	67.76466369628908	
28	0.27	141.5855865478516	1063.198608398438	-365.6042480468751	-67.4301223754883	1053.87109375	-303.4651794433594	-72.82649230957033	1050.678588867188	-202.7257843017579	125.0626831054688	1061.75537109375	-116.8306350708008	70.32847595214845	969.992858886719	-440.2044677734376	122.086654663086	519.6110839843751	-402.7495117187501	121.8619613647461	497.8103637695314	-277.6858825683594	112.8140182495117	451.5509643554689	-410.7005310058595	174.7219696044922	452.7052001953126	-342.8592529296876	118.1717529296875	78.03301239013673	-375.1372375488282	146.8932189941407	91.94163513183595	-276.6438293457032	71.98447418212892	16.68172836303711	-331.8222961425782	294.0872497558594	23.41415786743164	-292.7643127441407	286.3951110839844	38.44411849975587	-346.3363037109376	233.5601501464844	13.89431667327881	-404.143035888672	13.63262939453125	946.3321533203127	-64.02574920654298	84.23336791992189	508.6019592285157	-69.83153533935548	96.29549407958987	481.9664611816407	-197.1339111328126	31.30404472351075	471.7650756835939	-67.33473968505861	94.86203765869142	419.5551147460939	-122.0171661376953	-255.3981018066407	247.3309631347657	-122.993881225586	-221.0016174316407	221.5012207031251	-216.1479644775391	-322.3771667480469	254.2023925781251	-181.2991027832032	-235.2883911132813	66.14266204833986	-192.026840209961	-225.4564361572266	85.5301971435547	-139.5227813720703	-256.2268676757813	102.6258392333985	-91.73654937744142	17.44519424438477	1591.976440429688	-288.0903930664063	-76.67407989501955	1330.457153320313	-260.9272766113282	178.6340637207032	1296.888061523438	-264.9359130859376	145.2275390625	1490.455322265625	-280.3443298339844	-101.7090682983399	1361.110961914063	-360.5708618164063	-51.50389099121095	1511.549560546875	-380.4252319335938	-6.943865776062013	1497.948364257813	-492.5302124023439	49.03699493408205	1497.0615234375	-504.2167053222657	-8.364876747131349	1142.267578125	-562.3287353515626	-22.29188537597657	1138.779907226563	-465.6439819335939	-41.01135635375977	1130.953491210938	-510.1907958984376	84.84072875976564	865.887145996094	-548.8327636718751	6.097767353057863	880.332214355469	-589.3745117187501	103.2687225341797	781.9292602539065	-544.2371826171876	4.963014602661134	791.1132812500002	-598.9306030273439	-95.91542053222658	1379.97314453125	-166.3607330322266	-47.30570220947266	1525.4658203125	-177.330062866211	5.969237804412843	1533.853637695313	-70.41497802734376	58.15336990356447	1537.523071289063	-60.340389251709	-0.08955620229244234	1191.252319335938	29.5138168334961	-19.02183723449707	1172.561401367188	-60.36287689208986	-30.63373374938966	1169.2138671875	-0.8257804512977602	137.1722259521485	932.9282226562502	8.583789825439455	61.32359313964845	933.7360839843752	59.6017303466797	167.7610015869141	843.963073730469	6.451365470886232	67.21225738525392	844.3582153320315	66.67147827148439	
